<svg version="1.1" id="Layer_1" xmlns="http://www.w3.org/2000/svg" xmlns:xlink="http://www.w3.org/1999/xlink" x="0px" y="0px"
	 width="100%" viewBox="0 0 96 51" enable-background="new 0 0 96 51" xml:space="preserve">
<path fill="#FBFBFB" opacity="1.000000" stroke="none" 
	d="
M1.000000,23.000000 
	C1.000000,15.689338 1.000000,8.378675 1.000000,1.034006 
	C32.878372,1.034006 64.756790,1.034006 97.000000,1.034006 
	C97.000000,8.683692 97.000000,16.373154 96.680908,24.339203 
	C95.483383,12.963492 80.609398,3.381519 70.737411,4.999053 
	C58.395092,7.021356 51.403519,15.676958 46.296017,26.178976 
	C43.353634,32.229092 40.894550,38.492615 34.911812,42.431793 
	C25.318972,48.747944 12.029538,44.404552 8.453732,33.685028 
	C5.985527,26.285864 10.012783,15.457451 16.233425,12.975213 
	C22.220772,10.586069 28.186071,10.252995 33.965027,13.881879 
	C33.436588,15.730622 32.952953,17.252222 32.461651,18.797941 
	C37.413006,18.797941 42.082928,18.797941 47.698902,18.797941 
	C45.182262,14.248030 43.029297,10.355614 40.792530,6.311690 
	C39.106785,7.510388 38.069118,8.248251 36.684200,8.881937 
	C33.400101,7.504958 30.570803,5.623972 27.504753,5.081772 
	C20.397711,3.824965 14.166664,6.782808 9.215808,11.444083 
	C5.841583,14.620946 3.695324,19.102060 1.000000,23.000000 
z"/>
<path fill="#3C3C3C" opacity="1.000000" stroke="none" 
	d="
M1.000000,23.454109 
	C3.695324,19.102060 5.841583,14.620946 9.215808,11.444083 
	C14.166664,6.782808 20.397711,3.824965 27.504753,5.081772 
	C30.570803,5.623972 33.400101,7.504958 36.577934,9.210570 
	C35.882553,10.947165 34.946190,12.250950 34.009827,13.554735 
	C28.186071,10.252995 22.220772,10.586069 16.233425,12.975213 
	C10.012783,15.457451 5.985527,26.285864 8.453732,33.685028 
	C12.029538,44.404552 25.318972,48.747944 34.911812,42.431793 
	C40.894550,38.492615 43.353634,32.229092 46.296017,26.178976 
	C51.403519,15.676958 58.395092,7.021356 70.737411,4.999053 
	C80.609398,3.381519 95.483383,12.963492 96.680908,24.807896 
	C97.000000,27.370558 97.000000,29.741114 96.663589,32.705269 
	C94.659401,36.356724 93.163689,39.525032 91.286903,42.448723 
	C87.728073,47.992733 82.169281,50.531158 76.000000,52.000000 
	C73.629440,52.000000 71.258888,52.000000 68.308990,51.663162 
	C62.375183,49.860462 57.944954,46.979626 54.277897,42.806011 
	C50.243053,38.213810 50.203884,37.500565 54.004124,33.015282 
	C56.943043,36.089352 59.549641,39.737373 62.990250,42.237782 
	C72.420418,49.091015 86.033203,44.344646 89.593315,33.407032 
	C92.069176,25.800550 87.458160,14.068151 78.212563,11.680918 
	C68.264145,9.112208 58.411057,16.025793 53.638050,26.061449 
	C48.287369,37.311703 42.537762,48.420952 29.000000,52.000000 
	C26.299986,52.000000 23.599974,52.000000 20.304443,51.666306 
	C15.930673,49.042671 11.591440,47.322060 8.529554,44.305088 
	C5.372108,41.193962 3.458055,36.820930 1.000000,33.000000 
	C1.000000,29.969406 1.000000,26.938814 1.000000,23.454109 
z"/>
<path fill="#FCFCFC" opacity="1.000000" stroke="none" 
	d="
M29.468658,52.000000 
	C42.537762,48.420952 48.287369,37.311703 53.638050,26.061449 
	C58.411057,16.025793 68.264145,9.112208 78.212563,11.680918 
	C87.458160,14.068151 92.069176,25.800550 89.593315,33.407032 
	C86.033203,44.344646 72.420418,49.091015 62.990250,42.237782 
	C59.549641,39.737373 56.943043,36.089352 54.004124,33.015282 
	C50.203884,37.500565 50.243053,38.213810 54.277897,42.806011 
	C57.944954,46.979626 62.375183,49.860462 67.864830,51.663162 
	C55.312439,52.000000 42.624878,52.000000 29.468658,52.000000 
z"/>
<path fill="#F8F8F8" opacity="1.000000" stroke="none" 
	d="
M76.468910,52.000000 
	C82.169281,50.531158 87.728073,47.992733 91.286903,42.448723 
	C93.163689,39.525032 94.659401,36.356724 96.663589,33.149429 
	C97.000000,39.263134 97.000000,45.526268 97.000000,52.000000 
	C90.314072,52.000000 83.625946,52.000000 76.468910,52.000000 
z"/>
<path fill="#F8F8F8" opacity="1.000000" stroke="none" 
	d="
M1.000000,33.469376 
	C3.458055,36.820930 5.372108,41.193962 8.529554,44.305088 
	C11.591440,47.322060 15.930673,49.042671 19.854462,51.666306 
	C13.740767,52.000000 7.481534,52.000000 1.000000,52.000000 
	C1.000000,45.981396 1.000000,39.960072 1.000000,33.469376 
z"/>
<path fill="#82C126" opacity="1.000000" stroke="none" 
	d="
M33.965027,13.881878 
	C34.946190,12.250950 35.882553,10.947165 36.925186,9.314747 
	C38.069118,8.248251 39.106785,7.510388 40.792530,6.311690 
	C43.029297,10.355614 45.182262,14.248030 47.698902,18.797941 
	C42.082928,18.797941 37.413006,18.797941 32.461651,18.797941 
	C32.952953,17.252222 33.436588,15.730622 33.965027,13.881878 
z"/>
</svg>